<svg width="20" height="15" viewBox="0 0 20 15" fill="none" xmlns="http://www.w3.org/2000/svg">
<path d="M10 0C13.2495 0 15.7462 1.85527 17.3787 3.5966C18.2025 4.47536 18.8314 5.35114 19.2545 6.00627C19.4665 6.33463 19.6284 6.60972 19.7383 6.80501C19.7932 6.9027 19.8354 6.98054 19.8644 7.03532C19.8789 7.06271 19.8898 7.08456 19.8978 7.10002C19.9017 7.10772 19.9052 7.11374 19.9075 7.11833C19.9087 7.12062 19.9096 7.12253 19.9104 7.12402C19.9108 7.12477 19.9109 7.12552 19.9112 7.12606L19.9116 7.12687C19.9101 7.128 19.8757 7.14542 19.1666 7.5C19.8758 7.85459 19.9101 7.872 19.9116 7.87313L19.9112 7.87394C19.9109 7.87448 19.9108 7.87523 19.9104 7.87598C19.9096 7.87747 19.9087 7.87938 19.9075 7.88167C19.9052 7.88626 19.9017 7.89228 19.8978 7.89998C19.8898 7.91544 19.8789 7.93729 19.8644 7.96468C19.8354 8.01946 19.7932 8.09729 19.7383 8.19499C19.6284 8.39028 19.4665 8.66537 19.2545 8.99373C18.8314 9.64886 18.2025 10.5246 17.3787 11.4034C15.7462 13.1447 13.2495 15 10 15C6.75049 15 4.25382 13.1447 2.62132 11.4034C1.79749 10.5246 1.16863 9.64886 0.745523 8.99373C0.533453 8.66537 0.371571 8.39028 0.261722 8.19499C0.206771 8.09729 0.16457 8.01946 0.135584 7.96468C0.121091 7.93729 0.110164 7.91544 0.102218 7.89998C0.098257 7.89228 0.0947762 7.88626 0.0924524 7.88167C0.0912921 7.87938 0.0903546 7.87747 0.0896042 7.87598C0.0892305 7.87523 0.089062 7.87448 0.0887904 7.87394L0.0883835 7.87313C0.0899075 7.87201 0.124213 7.8546 0.833413 7.5C0.124241 7.14541 0.08991 7.128 0.0883835 7.12687L0.0887904 7.12606C0.089062 7.12552 0.0892305 7.12477 0.0896042 7.12402C0.0903546 7.12253 0.0912921 7.12062 0.0924524 7.11833C0.0947763 7.11374 0.0982569 7.10772 0.102218 7.10002C0.110164 7.08456 0.121091 7.06271 0.135584 7.03532C0.16457 6.98054 0.206771 6.9027 0.261722 6.80501C0.371571 6.60972 0.533453 6.33463 0.745523 6.00627C1.16863 5.35114 1.79749 4.47536 2.62132 3.5966C4.25382 1.85527 6.75049 0 10 0ZM10 1.66667C7.41628 1.66667 5.3296 3.14475 3.83713 4.73673C3.09853 5.52459 2.52942 6.31556 2.14525 6.9104C1.99584 7.14174 1.87618 7.3427 1.78515 7.5C1.87618 7.6573 1.99584 7.85826 2.14525 8.0896C2.52942 8.68444 3.09853 9.47541 3.83713 10.2633C5.3296 11.8552 7.41628 13.3333 10 13.3333C12.5837 13.3333 14.6704 11.8552 16.1629 10.2633C16.9015 9.47541 17.4706 8.68444 17.8547 8.0896C18.0041 7.85834 18.1234 7.65728 18.2144 7.5C18.1234 7.34272 18.0041 7.14166 17.8547 6.9104C17.4706 6.31556 16.9015 5.52459 16.1629 4.73673C14.6704 3.14475 12.5837 1.66667 10 1.66667ZM11.6667 7.5C11.6667 6.57953 10.9205 5.83333 10 5.83333C9.07953 5.83333 8.33335 6.57953 8.33335 7.5C8.33335 8.42047 9.07953 9.16667 10 9.16667C10.9205 9.16667 11.6667 8.42047 11.6667 7.5ZM0.833413 7.5L0.0879766 7.87272C-0.0293255 7.63811 -0.0293255 7.36188 0.0879766 7.12728L0.833413 7.5ZM19.912 7.12728C20.0293 7.36188 20.0293 7.63811 19.912 7.87272L19.1666 7.5L19.912 7.12728ZM13.3333 7.5C13.3333 9.34095 11.8409 10.8333 10 10.8333C8.15907 10.8333 6.6667 9.34095 6.6667 7.5C6.6667 5.65905 8.15907 4.16667 10 4.16667C11.8409 4.16667 13.3333 5.65905 13.3333 7.5Z" fill="#222222"/>
</svg>
